<svg xmlns="http://www.w3.org/2000/svg" width="189" height="56" viewBox="0 0 189 56" fill="none"><g clip-path="url(#clip0_407_707)"><path d="M16.1006 49.4805C19.2962 50.7645 22.3584 51.3298 25.6649 51.3298C39.8338 51.3298 51.3298 39.8338 51.3298 25.6649C51.3298 11.4959 39.8338 0 25.6649 0C11.4959 0 0 11.4959 0 25.6649C0 32.8459 2.95707 39.3509 7.71225 44.0067C5.29773 47.7847 2.88322 51.5655 0.4687 55.3464C16.0977 49.4805 10.888 51.4377 16.0977 49.4805" fill="#FCB316"></path><path fill-rule="evenodd" clip-rule="evenodd" d="M43.6516 15.6603L30.1814 38.9987L21.154 38.9873L34.6099 15.6603H43.6516Z" fill="white"></path><path fill-rule="evenodd" clip-rule="evenodd" d="M25.6279 38.993L21.154 38.9873L25.6279 31.2296L30.1019 38.9873L25.6279 38.993Z" fill="white"></path><path fill-rule="evenodd" clip-rule="evenodd" d="M7.67816 15.6716L21.1483 39.0101L30.1758 38.9987L16.7198 15.6716H7.67816Z" fill="#FFD577"></path><path d="M104.236 13.5753H106.793L107.849 12.1805H107.892L108.926 13.5753H111.522L109.284 10.6835H106.455L104.236 13.5753ZM112.832 27.6618H107.278V23.8611H112.241V20.8188H107.278V17.5464H112.516V14.4416H103.563V30.7666H112.835V27.6618H112.832ZM100.964 27.4289C100.393 27.6391 99.444 27.8095 98.5975 27.8095C95.9586 27.8095 94.2684 26.0342 94.2684 22.6368C94.2684 18.9639 96.2313 17.3561 98.5776 17.3561C99.6116 17.3561 100.393 17.589 100.944 17.8419L101.62 14.8223C101.154 14.5695 100.015 14.2314 98.3674 14.2314C94.1661 14.2314 90.3626 16.9982 90.3626 22.847C90.3626 27.3664 92.8112 30.9768 97.9868 30.9768C99.5917 30.9768 100.859 30.6814 101.43 30.4286L100.964 27.4289ZM82.1674 17.2709C84.0678 17.2709 85.0194 19.657 85.0194 22.509C85.0194 25.699 84.0479 27.9374 82.1674 27.9374C80.2869 27.9374 79.2331 25.699 79.2529 22.5743C79.2529 19.7649 80.1818 17.2737 82.1674 17.2737M82.2725 14.2087C77.8809 14.2087 75.3471 18.0322 75.3471 22.634C75.3471 27.2357 77.5429 30.9967 82.0424 30.9967C86.1613 30.9967 88.9281 28.0624 88.9281 22.3811C88.9281 18.41 87.0277 14.2087 82.2754 14.2087M70.5323 14.4416L68.9898 21.2619C68.5666 23.097 68.1661 24.9973 67.8706 26.9432H67.8081C67.49 24.9746 67.0895 23.097 66.6691 21.2563L65.1266 14.4416H61.0305L65.5697 30.7666H69.8562L74.5432 14.4416H70.5294H70.5323Z" fill="white"></path><path d="M188.449 29.6673H181.523V14.7371H180.214V30.7666H188.449V29.6673ZM168.786 24.219L170.624 18.961C170.962 17.9469 171.237 17.0181 171.448 16.0693H171.51C171.743 16.9982 171.996 17.9271 172.354 19.0463L174.169 24.219H168.783H168.786ZM172.186 14.7371H170.834L165.238 30.7666H166.568L168.448 25.2757H174.51L176.41 30.7666H177.782L172.186 14.7371ZM165.133 14.7371H153.813V15.8364H158.818V30.7666H160.128V15.8364H165.133V14.7371ZM150.774 30.7666H152.083V14.7371H150.774V30.7666ZM147.544 22.7192H142.709V23.7958H146.257V29.3065C145.709 29.602 144.695 29.8548 143.133 29.8548C139.122 29.8548 136.545 27.2357 136.545 22.7391C136.545 18.2424 139.184 15.6659 143.365 15.6659C144.865 15.6659 145.922 15.9614 146.723 16.342L147.104 15.2654C146.323 14.8848 144.951 14.5695 143.428 14.5695C138.19 14.5695 135.193 18.1799 135.193 22.8271C135.193 26.8608 137.264 30.937 142.985 30.937C145.075 30.937 146.743 30.4314 147.547 30.0934V22.722L147.544 22.7192ZM131.114 30.7666H132.423V14.7371H131.114V30.7666ZM117.303 15.9415C117.936 15.8137 118.845 15.6887 120.007 15.6887C124.632 15.6887 126.998 18.1373 126.998 22.4266C126.998 27.0937 124.507 29.8178 119.692 29.8178C118.763 29.8178 117.919 29.798 117.306 29.69V15.9415H117.303ZM115.993 30.7666C117.093 30.8717 118.232 30.8944 119.479 30.8944C127.251 30.8944 128.347 25.466 128.347 22.3641C128.347 18.5208 126.532 14.6149 120.027 14.6149C118.55 14.6149 117.198 14.7626 115.993 14.9728V30.7694V30.7666Z" fill="white"></path><path d="M188.449 29.6673H181.523V14.7371H180.214V30.7666H188.449V29.6673ZM168.786 24.219L170.624 18.961C170.962 17.9469 171.237 17.0181 171.448 16.0693H171.51C171.743 16.9982 171.996 17.9271 172.354 19.0463L174.169 24.219H168.783H168.786ZM172.186 14.7371H170.834L165.238 30.7666H166.568L168.448 25.2757H174.51L176.41 30.7666H177.782L172.186 14.7371ZM165.133 14.7371H153.813V15.8364H158.818V30.7666H160.128V15.8364H165.133V14.7371ZM150.774 30.7666H152.083V14.7371H150.774V30.7666ZM147.544 22.7192H142.709V23.7958H146.257V29.3065C145.709 29.602 144.695 29.8548 143.133 29.8548C139.122 29.8548 136.545 27.2357 136.545 22.7391C136.545 18.2424 139.184 15.6659 143.365 15.6659C144.865 15.6659 145.922 15.9614 146.723 16.342L147.104 15.2654C146.323 14.8848 144.951 14.5695 143.428 14.5695C138.19 14.5695 135.193 18.1799 135.193 22.8271C135.193 26.8608 137.264 30.937 142.985 30.937C145.075 30.937 146.743 30.4314 147.547 30.0934V22.722L147.544 22.7192ZM131.114 30.7666H132.423V14.7371H131.114V30.7666ZM117.303 15.9415C117.936 15.8137 118.845 15.6887 120.007 15.6887C124.632 15.6887 126.998 18.1373 126.998 22.4266C126.998 27.0937 124.507 29.8178 119.692 29.8178C118.763 29.8178 117.919 29.798 117.306 29.69V15.9415H117.303ZM115.993 30.7666C117.093 30.8717 118.232 30.8944 119.479 30.8944C127.251 30.8944 128.347 25.466 128.347 22.3641C128.347 18.5208 126.532 14.6149 120.027 14.6149C118.55 14.6149 117.198 14.7626 115.993 14.9728V30.7694V30.7666Z" stroke="white" stroke-width="0.0624934" stroke-miterlimit="22.93"></path><path d="M159.307 40.3622L160.031 38.2914C160.165 37.8937 160.273 37.5273 160.355 37.1523H160.381C160.472 37.5187 160.571 37.8823 160.713 38.3255L161.429 40.3622H159.31H159.307ZM160.645 36.6325H160.114L157.912 42.9415H158.435L159.173 40.7798H161.56L162.307 42.9415H162.846L160.645 36.6325ZM150.368 37.104C150.618 37.0557 150.975 37.0046 151.433 37.0046C153.254 37.0046 154.182 37.9676 154.182 39.6549C154.182 41.4927 153.202 42.5637 151.308 42.5637C150.941 42.5637 150.609 42.5551 150.368 42.5125V37.1012V37.104ZM149.851 42.9386C150.282 42.9812 150.731 42.9897 151.223 42.9897C154.282 42.9897 154.714 40.8536 154.714 39.6321C154.714 38.1181 153.998 36.5813 151.438 36.5813C150.856 36.5813 150.325 36.641 149.851 36.7234V42.9415V42.9386ZM145.8 36.6325H145.3V39.6492C145.3 40.6462 145.308 41.3706 145.374 42.2341L145.357 42.2427C145.058 41.6206 144.692 41.0127 144.201 40.2315L141.9 36.6325H141.391V42.9415H141.883V39.8821C141.883 38.8027 141.874 38.1124 141.823 37.3227L141.849 37.3142C142.172 37.9874 142.587 38.6521 143.036 39.3765L145.306 42.9415H145.797V36.6325H145.8ZM134.324 40.3622L135.048 38.2914C135.182 37.8937 135.29 37.5273 135.372 37.1523H135.398C135.488 37.5187 135.588 37.8823 135.73 38.3255L136.446 40.3622H134.327H134.324ZM135.662 36.6325H135.131L132.929 42.9415H133.452L134.19 40.7798H136.576L137.323 42.9415H137.863L135.662 36.6325ZM129.549 39.7742H127.646V40.1974H129.043V42.3676C128.827 42.4841 128.427 42.5835 127.813 42.5835C126.234 42.5835 125.22 41.5524 125.22 39.7827C125.22 38.013 126.259 36.9989 127.904 36.9989C128.495 36.9989 128.91 37.1154 129.225 37.2659L129.375 36.8427C129.069 36.6921 128.529 36.5671 127.93 36.5671C125.867 36.5671 124.688 37.9874 124.688 39.8168C124.688 41.4047 125.504 43.0068 127.756 43.0068C128.58 43.0068 129.236 42.8079 129.552 42.6744V39.7742H129.549ZM118.007 40.3622L118.732 38.2914C118.865 37.8937 118.973 37.5273 119.056 37.1523H119.081C119.172 37.5187 119.271 37.8823 119.413 38.3255L120.129 40.3622H118.01H118.007ZM119.345 36.6325H118.814L116.613 42.9415H117.135L117.874 40.7798H120.26L121.007 42.9415H121.547L119.345 36.6325ZM110.349 37.0813C110.514 37.0387 110.806 37.0074 111.19 37.0074C112.105 37.0074 112.835 37.4051 112.835 38.4135C112.835 39.4219 112.178 39.919 111.099 39.919C110.809 39.919 110.551 39.902 110.352 39.8367V37.087L110.349 37.0813ZM109.841 42.9386H110.346V40.2713C110.562 40.3281 110.804 40.3366 111.071 40.3366C112.085 40.3366 113.349 39.8878 113.349 38.3596C113.349 37.7943 113.133 36.5813 111.196 36.5813C110.647 36.5813 110.199 36.641 109.841 36.7063V42.9386ZM103.461 36.9563C104.966 36.9563 105.648 38.4448 105.648 39.7571C105.648 41.2683 104.875 42.6148 103.438 42.6148C102.001 42.6148 101.253 41.2257 101.253 39.831C101.253 38.4363 101.927 36.9563 103.463 36.9563M103.495 36.533C101.924 36.533 100.719 37.7545 100.719 39.848C100.719 41.9416 101.884 43.0409 103.421 43.0409C104.958 43.0409 106.179 41.97 106.179 39.7344C106.179 37.7886 105.091 36.533 103.495 36.533ZM94.3479 39.6662V37.0728C94.4985 37.0301 94.7967 36.9989 95.2029 36.9989C95.9926 36.9989 96.8335 37.2659 96.8335 38.3198C96.8335 39.135 96.217 39.6662 95.2796 39.6662H94.3479ZM96.1347 39.8821C96.8505 39.6321 97.3476 39.0924 97.3476 38.2459C97.3476 37.7886 97.1743 37.3739 96.8988 37.0983C96.5409 36.7489 96.0267 36.5842 95.2115 36.5842C94.7541 36.5842 94.2229 36.6353 93.8395 36.7177V42.9443H94.3479V40.0781H95.2541C96.0608 40.0781 96.4329 40.5099 96.6261 41.4075C96.7937 42.2057 96.9329 42.7625 97.0323 42.9443H97.5635C97.43 42.6943 97.305 42.2057 97.0976 41.2485C96.9471 40.5411 96.6403 40.0611 96.1347 39.902V39.885V39.8821ZM87.1129 37.0813C87.2805 37.0387 87.5702 37.0074 87.9537 37.0074C88.8684 37.0074 89.5984 37.4051 89.5984 38.4135C89.5984 39.4219 88.9422 39.919 87.86 39.919C87.5702 39.919 87.3117 39.902 87.1129 39.8367V37.087V37.0813ZM86.6044 42.9386H87.1101V40.2713C87.3259 40.3281 87.5674 40.3366 87.8344 40.3366C88.8485 40.3366 90.1126 39.8878 90.1126 38.3596C90.1126 37.7943 89.8967 36.5813 87.9594 36.5813C87.4112 36.5813 86.9623 36.641 86.6044 36.7063V42.9386Z" fill="white"></path><path d="M159.307 40.3622L160.031 38.2914C160.165 37.8937 160.273 37.5273 160.355 37.1523H160.381C160.472 37.5187 160.571 37.8823 160.713 38.3255L161.429 40.3622H159.31H159.307ZM160.645 36.6325H160.114L157.912 42.9415H158.435L159.173 40.7798H161.56L162.307 42.9415H162.846L160.645 36.6325ZM150.368 37.104C150.618 37.0557 150.975 37.0046 151.433 37.0046C153.254 37.0046 154.182 37.9676 154.182 39.6549C154.182 41.4927 153.202 42.5637 151.308 42.5637C150.941 42.5637 150.609 42.5551 150.368 42.5125V37.1012V37.104ZM149.851 42.9386C150.282 42.9812 150.731 42.9897 151.223 42.9897C154.282 42.9897 154.714 40.8536 154.714 39.6321C154.714 38.1181 153.998 36.5813 151.438 36.5813C150.856 36.5813 150.325 36.641 149.851 36.7234V42.9415V42.9386ZM145.8 36.6325H145.3V39.6492C145.3 40.6462 145.308 41.3706 145.374 42.2341L145.357 42.2427C145.058 41.6206 144.692 41.0127 144.201 40.2315L141.9 36.6325H141.391V42.9415H141.883V39.8821C141.883 38.8027 141.874 38.1124 141.823 37.3227L141.849 37.3142C142.172 37.9874 142.587 38.6521 143.036 39.3765L145.306 42.9415H145.797V36.6325H145.8ZM134.324 40.3622L135.048 38.2914C135.182 37.8937 135.29 37.5273 135.372 37.1523H135.398C135.488 37.5187 135.588 37.8823 135.73 38.3255L136.446 40.3622H134.327H134.324ZM135.662 36.6325H135.131L132.929 42.9415H133.452L134.19 40.7798H136.576L137.323 42.9415H137.863L135.662 36.6325ZM129.549 39.7742H127.646V40.1974H129.043V42.3676C128.827 42.4841 128.427 42.5835 127.813 42.5835C126.234 42.5835 125.22 41.5524 125.22 39.7827C125.22 38.013 126.259 36.9989 127.904 36.9989C128.495 36.9989 128.91 37.1154 129.225 37.2659L129.375 36.8427C129.069 36.6921 128.529 36.5671 127.93 36.5671C125.867 36.5671 124.688 37.9874 124.688 39.8168C124.688 41.4047 125.504 43.0068 127.756 43.0068C128.58 43.0068 129.236 42.8079 129.552 42.6744V39.7742H129.549ZM118.007 40.3622L118.732 38.2914C118.865 37.8937 118.973 37.5273 119.056 37.1523H119.081C119.172 37.5187 119.271 37.8823 119.413 38.3255L120.129 40.3622H118.01H118.007ZM119.345 36.6325H118.814L116.613 42.9415H117.135L117.874 40.7798H120.26L121.007 42.9415H121.547L119.345 36.6325ZM110.349 37.0813C110.514 37.0387 110.806 37.0074 111.19 37.0074C112.105 37.0074 112.835 37.4051 112.835 38.4135C112.835 39.4219 112.178 39.919 111.099 39.919C110.809 39.919 110.551 39.902 110.352 39.8367V37.087L110.349 37.0813ZM109.841 42.9386H110.346V40.2713C110.562 40.3281 110.804 40.3366 111.071 40.3366C112.085 40.3366 113.349 39.8878 113.349 38.3596C113.349 37.7943 113.133 36.5813 111.196 36.5813C110.647 36.5813 110.199 36.641 109.841 36.7063V42.9386ZM103.461 36.9563C104.966 36.9563 105.648 38.4448 105.648 39.7571C105.648 41.2683 104.875 42.6148 103.438 42.6148C102.001 42.6148 101.253 41.2257 101.253 39.831C101.253 38.4363 101.927 36.9563 103.463 36.9563H103.461ZM103.495 36.533C101.924 36.533 100.719 37.7545 100.719 39.848C100.719 41.9416 101.884 43.0409 103.421 43.0409C104.958 43.0409 106.179 41.97 106.179 39.7344C106.179 37.7886 105.091 36.533 103.495 36.533ZM94.3479 39.6662V37.0728C94.4985 37.0301 94.7967 36.9989 95.2029 36.9989C95.9926 36.9989 96.8335 37.2659 96.8335 38.3198C96.8335 39.135 96.217 39.6662 95.2796 39.6662H94.3479ZM96.1347 39.8821C96.8505 39.6321 97.3476 39.0924 97.3476 38.2459C97.3476 37.7886 97.1743 37.3739 96.8988 37.0983C96.5409 36.7489 96.0267 36.5842 95.2115 36.5842C94.7541 36.5842 94.2229 36.6353 93.8395 36.7177V42.9443H94.3479V40.0781H95.2541C96.0608 40.0781 96.4329 40.5099 96.6261 41.4075C96.7937 42.2057 96.9329 42.7625 97.0323 42.9443H97.5635C97.43 42.6943 97.305 42.2057 97.0976 41.2485C96.9471 40.5411 96.6403 40.0611 96.1347 39.902V39.885V39.8821ZM87.1129 37.0813C87.2805 37.0387 87.5702 37.0074 87.9537 37.0074C88.8684 37.0074 89.5984 37.4051 89.5984 38.4135C89.5984 39.4219 88.9422 39.919 87.86 39.919C87.5702 39.919 87.3117 39.902 87.1129 39.8367V37.087V37.0813ZM86.6044 42.9386H87.1101V40.2713C87.3259 40.3281 87.5674 40.3366 87.8344 40.3366C88.8485 40.3366 90.1126 39.8878 90.1126 38.3596C90.1126 37.7943 89.8967 36.5813 87.9594 36.5813C87.4112 36.5813 86.9623 36.641 86.6044 36.7063V42.9386Z" stroke="white" stroke-width="0.0624934" stroke-miterlimit="22.93"></path></g><defs><clipPath id="clip0_407_707"><rect width="188.48" height="55.3464" fill="white"></rect></clipPath></defs></svg>